# Blender 5.1.0
# www.blender.org
mtllib map4_merge.mtl
o map
v 1.117430 -0.214840 -0.000249
v 1.117430 -0.214840 0.164147
v 1.117430 -0.290221 -0.000249
v 1.117430 -0.290221 0.164147
v 1.068293 -0.214840 -0.000249
v 1.068293 -0.214840 0.164147
v 1.068293 -0.290221 -0.000249
v 1.068293 -0.290221 0.164147
v -0.215798 0.219733 -0.003781
v -0.215798 0.219733 0.000220
v 1.664203 0.219733 -0.003781
v 1.664203 0.219733 0.000220
v -0.215798 -1.205268 -0.003781
v -0.215798 -1.205268 0.000220
v 1.664203 -1.205268 -0.003781
v 1.664203 -1.205268 0.000220
v -0.214990 -1.192057 -0.000027
v -0.214990 -1.192057 0.205468
v 1.662314 -1.192057 -0.000027
v 1.662314 -1.192057 0.205468
v -0.214990 -1.207057 -0.000027
v -0.214990 -1.207057 0.205468
v 1.662314 -1.207057 -0.000027
v 1.662314 -1.207057 0.205468
v -0.216338 0.217943 -0.000027
v -0.216338 0.217943 0.205468
v -0.201338 0.217943 -0.000027
v -0.201338 0.217943 0.205468
v -0.216338 -1.207057 -0.000027
v -0.216338 -1.207057 0.205468
v -0.201338 -1.207057 -0.000027
v -0.201338 -1.207057 0.205468
v 1.648662 0.206710 -0.000027
v 1.648662 0.206710 0.205468
v 1.663661 0.206710 -0.000027
v 1.663661 0.206710 0.205468
v 1.648662 -1.191038 -0.000027
v 1.648662 -1.191038 0.205468
v 1.663661 -1.191038 -0.000027
v 1.663661 -1.191038 0.205468
v 0.211751 -0.178709 -0.001071
v 0.211751 -0.178709 0.204425
v 0.658592 -0.178709 -0.001071
v 0.658592 -0.178709 0.204425
v 0.211751 -0.186709 -0.001071
v 0.211751 -0.186709 0.204425
v 0.658592 -0.186709 -0.001071
v 0.658592 -0.186709 0.204425
v 0.203724 -0.178589 -0.001071
v 0.203724 -0.178589 0.204425
v 0.211724 -0.178589 -0.001071
v 0.211724 -0.178589 0.204425
v 0.203724 -0.642545 -0.001071
v 0.203724 -0.642545 0.204425
v 0.211724 -0.642545 -0.001071
v 0.211724 -0.642545 0.204425
v 1.046046 -0.942222 -0.001621
v 1.046046 -0.942222 0.176475
v 1.110935 -0.942222 -0.001621
v 1.110935 -0.942222 0.176475
v 1.046046 -1.191450 -0.001621
v 1.046046 -1.191450 0.176475
v 1.110935 -1.191450 -0.001621
v 1.110935 -1.191450 0.176475
v 1.151347 -0.966876 -0.000249
v 1.151347 -0.966876 0.164147
v 1.199908 -0.966876 -0.000249
v 1.199908 -0.966876 0.164147
v 1.151347 -1.164089 -0.000249
v 1.151347 -1.164089 0.164147
v 1.199908 -1.164089 -0.000249
v 1.199908 -1.164089 0.164147
v 1.237274 -0.214840 -0.000249
v 1.237274 -0.214840 0.164147
v 1.237274 -0.290221 -0.000249
v 1.237274 -0.290221 0.164147
v 1.188137 -0.214840 -0.000249
v 1.188137 -0.214840 0.164147
v 1.188137 -0.290221 -0.000249
v 1.188137 -0.290221 0.164147
v 1.129254 -0.212884 -0.001621
v 1.129254 -0.212884 0.176475
v 1.179254 -0.212884 -0.001621
v 1.179254 -0.212884 0.176475
v 1.129254 -0.292722 -0.001621
v 1.129254 -0.292722 0.176475
v 1.179254 -0.292722 -0.001621
v 1.179254 -0.292722 0.176475
v 0.421265 -1.058094 -0.000249
v 0.421265 -1.058094 0.164147
v 0.470653 -1.058094 -0.000249
v 0.470653 -1.058094 0.164147
v 0.421265 -1.172205 -0.000249
v 0.421265 -1.172205 0.164147
v 0.470653 -1.172205 -0.000249
v 0.470653 -1.172205 0.164147
v 0.301643 -1.037414 -0.001254
v 0.301643 -1.037414 0.176842
v 0.381643 -1.037414 -0.001254
v 0.381643 -1.037414 0.176842
v 0.301643 -1.191783 -0.001254
v 0.301643 -1.191783 0.176842
v 0.381643 -1.191783 -0.001254
v 0.381643 -1.191783 0.176842
v 0.201485 -0.960048 -0.001071
v 0.201485 -0.960048 0.204425
v 0.209485 -0.960048 -0.001071
v 0.209485 -0.960048 0.204425
v 0.201485 -1.191660 -0.001071
v 0.201485 -1.191660 0.204425
v 0.209485 -1.191660 -0.001071
v 0.209485 -1.191660 0.204425
v 1.237535 -0.179942 -0.001071
v 1.237535 -0.179942 0.204425
v 1.245535 -0.179942 -0.001071
v 1.245535 -0.179942 0.204425
v 1.237535 -0.484585 -0.001071
v 1.237535 -0.484585 0.204425
v 1.245535 -0.484585 -0.001071
v 1.245535 -0.484585 0.204425
v 1.237782 -0.180116 -0.001071
v 1.237782 -0.180116 0.204425
v 1.237782 -0.188116 -0.001071
v 1.237782 -0.188116 0.204425
v 1.059308 -0.180116 -0.001071
v 1.059308 -0.180116 0.204425
v 1.059308 -0.188116 -0.001071
v 1.059308 -0.188116 0.204425
v 1.237535 -0.887128 -0.001071
v 1.237535 -0.887128 0.204425
v 1.245535 -0.887128 -0.001071
v 1.245535 -0.887128 0.204425
v 1.237535 -1.191772 -0.001071
v 1.237535 -1.191772 0.204425
v 1.245535 -1.191772 -0.001071
v 1.245535 -1.191772 0.204425
v -0.214990 0.219370 -0.000027
v -0.214990 0.219370 0.205468
v 1.662314 0.219370 -0.000027
v 1.662314 0.219370 0.205468
v -0.214990 0.204370 -0.000027
v -0.214990 0.204370 0.205468
v 1.662314 0.204370 -0.000027
v 1.662314 0.204370 0.205468
v 0.211751 -0.521276 -0.002558
v 0.211751 -0.521276 0.161838
v 0.658592 -0.521276 -0.002558
v 0.658592 -0.521276 0.161838
v 0.211751 -0.529276 -0.002558
v 0.211751 -0.529276 0.161838
v 0.658592 -0.529276 -0.002558
v 0.658592 -0.529276 0.161838
v 0.957600 -0.966876 -0.000249
v 0.957600 -0.966876 0.164147
v 1.006161 -0.966876 -0.000249
v 1.006161 -0.966876 0.164147
v 0.957600 -1.164089 -0.000249
v 0.957600 -1.164089 0.164147
v 1.006161 -1.164089 -0.000249
v 1.006161 -1.164089 0.164147
v 0.210441 -1.058094 -0.000249
v 0.210441 -1.058094 0.164147
v 0.259829 -1.058094 -0.000249
v 0.259829 -1.058094 0.164147
v 0.210441 -1.172205 -0.000249
v 0.210441 -1.172205 0.164147
v 0.259829 -1.172205 -0.000249
v 0.259829 -1.172205 0.164147
v 0.792934 -1.058094 -0.000249
v 0.792934 -1.058094 0.164147
v 0.842321 -1.058094 -0.000249
v 0.842321 -1.058094 0.164147
v 0.792934 -1.172205 -0.000249
v 0.792934 -1.172205 0.164147
v 0.842321 -1.172205 -0.000249
v 0.842321 -1.172205 0.164147
v 0.582110 -1.058094 -0.000249
v 0.582110 -1.058094 0.164147
v 0.631497 -1.058094 -0.000249
v 0.631497 -1.058094 0.164147
v 0.582110 -1.172205 -0.000249
v 0.582110 -1.172205 0.164147
v 0.631497 -1.172205 -0.000249
v 0.631497 -1.172205 0.164147
v 0.673311 -1.037414 -0.001254
v 0.673311 -1.037414 0.176842
v 0.753311 -1.037414 -0.001254
v 0.753311 -1.037414 0.176842
v 0.673311 -1.191783 -0.001254
v 0.673311 -1.191783 0.176842
v 0.753311 -1.191783 -0.001254
v 0.753311 -1.191783 0.176842
v 0.436690 -0.231750 -0.000249
v 0.436690 -0.231750 0.164147
v 0.436690 -0.280312 -0.000249
v 0.436690 -0.280312 0.164147
v 0.239477 -0.231751 -0.000249
v 0.239477 -0.231751 0.164147
v 0.239477 -0.280312 -0.000249
v 0.239477 -0.280312 0.164147
v 0.436690 -0.425497 -0.000249
v 0.436690 -0.425497 0.164147
v 0.436690 -0.474058 -0.000249
v 0.436690 -0.474058 0.164147
v 0.239477 -0.425497 -0.000249
v 0.239477 -0.425497 0.164147
v 0.239477 -0.474058 -0.000249
v 0.239477 -0.474058 0.164147
v 0.461344 -0.320197 -0.001621
v 0.461344 -0.320197 0.176475
v 0.461344 -0.385085 -0.001621
v 0.461344 -0.385085 0.176475
v 0.212116 -0.320197 -0.001621
v 0.212116 -0.320197 0.176475
v 0.212116 -0.385085 -0.001621
v 0.212116 -0.385085 0.176475
v 1.117430 -0.354135 -0.000249
v 1.117430 -0.354135 0.164147
v 1.117430 -0.429515 -0.000249
v 1.117430 -0.429515 0.164147
v 1.068293 -0.354135 -0.000249
v 1.068293 -0.354135 0.164147
v 1.068293 -0.429515 -0.000249
v 1.068293 -0.429515 0.164147
v 1.237274 -0.354135 -0.000249
v 1.237274 -0.354135 0.164147
v 1.237274 -0.429515 -0.000249
v 1.237274 -0.429515 0.164147
v 1.188137 -0.354135 -0.000249
v 1.188137 -0.354135 0.164147
v 1.188137 -0.429516 -0.000249
v 1.188137 -0.429516 0.164147
v 1.129254 -0.352178 -0.001621
v 1.129254 -0.352178 0.176475
v 1.179254 -0.352178 -0.001621
v 1.179254 -0.352178 0.176475
v 1.129254 -0.432016 -0.001621
v 1.129254 -0.432016 0.176475
v 1.179254 -0.432016 -0.001621
v 1.179254 -0.432016 0.176475
vn 1.0000 -0.0000 -0.0000
vn -0.0000 -1.0000 -0.0000
vn -1.0000 -0.0000 -0.0000
vn -0.0000 1.0000 -0.0000
vn -0.0000 -0.0000 -1.0000
vn -0.0000 -0.0000 1.0000
vt 0.375000 0.000000
vt 0.625000 0.000000
vt 0.625000 0.250000
vt 0.375000 0.250000
vt 0.625000 0.500000
vt 0.375000 0.500000
vt 0.625000 0.750000
vt 0.375000 0.750000
vt 0.625000 1.000000
vt 0.375000 1.000000
vt 0.125000 0.500000
vt 0.125000 0.750000
vt 0.875000 0.500000
vt 0.875000 0.750000
s 0
usemtl Chair.017
f 1/1/1 2/2/1 4/3/1 3/4/1
f 3/4/2 4/3/2 8/5/2 7/6/2
f 7/6/3 8/5/3 6/7/3 5/8/3
f 5/8/4 6/7/4 2/9/4 1/10/4
f 3/11/5 7/6/5 5/8/5 1/12/5
f 8/5/6 4/13/6 2/14/6 6/7/6
usemtl Floor
f 9/1/4 10/2/4 12/3/4 11/4/4
f 11/4/1 12/3/1 16/5/1 15/6/1
f 15/6/2 16/5/2 14/7/2 13/8/2
f 13/8/3 14/7/3 10/9/3 9/10/3
f 11/11/5 15/6/5 13/8/5 9/12/5
f 16/5/6 12/13/6 10/14/6 14/7/6
usemtl Wall
f 17/1/4 18/2/4 20/3/4 19/4/4
f 19/4/1 20/3/1 24/5/1 23/6/1
f 23/6/2 24/5/2 22/7/2 21/8/2
f 21/8/3 22/7/3 18/9/3 17/10/3
f 19/11/5 23/6/5 21/8/5 17/12/5
f 24/5/6 20/13/6 18/14/6 22/7/6
f 25/1/4 26/2/4 28/3/4 27/4/4
f 27/4/1 28/3/1 32/5/1 31/6/1
f 31/6/2 32/5/2 30/7/2 29/8/2
f 29/8/3 30/7/3 26/9/3 25/10/3
f 27/11/5 31/6/5 29/8/5 25/12/5
f 32/5/6 28/13/6 26/14/6 30/7/6
f 33/1/4 34/2/4 36/3/4 35/4/4
f 35/4/1 36/3/1 40/5/1 39/6/1
f 39/6/2 40/5/2 38/7/2 37/8/2
f 37/8/3 38/7/3 34/9/3 33/10/3
f 35/11/5 39/6/5 37/8/5 33/12/5
f 40/5/6 36/13/6 34/14/6 38/7/6
f 137/1/4 138/2/4 140/3/4 139/4/4
f 139/4/1 140/3/1 144/5/1 143/6/1
f 143/6/2 144/5/2 142/7/2 141/8/2
f 141/8/3 142/7/3 138/9/3 137/10/3
f 139/11/5 143/6/5 141/8/5 137/12/5
f 144/5/6 140/13/6 138/14/6 142/7/6
usemtl VIPWall
f 41/1/4 42/2/4 44/3/4 43/4/4
f 43/4/1 44/3/1 48/5/1 47/6/1
f 47/6/2 48/5/2 46/7/2 45/8/2
f 45/8/3 46/7/3 42/9/3 41/10/3
f 43/11/5 47/6/5 45/8/5 41/12/5
f 48/5/6 44/13/6 42/14/6 46/7/6
f 49/1/4 50/2/4 52/3/4 51/4/4
f 51/4/1 52/3/1 56/5/1 55/6/1
f 55/6/2 56/5/2 54/7/2 53/8/2
f 53/8/3 54/7/3 50/9/3 49/10/3
f 51/11/5 55/6/5 53/8/5 49/12/5
f 56/5/6 52/13/6 50/14/6 54/7/6
f 145/1/4 146/2/4 148/3/4 147/4/4
f 147/4/1 148/3/1 152/5/1 151/6/1
f 151/6/2 152/5/2 150/7/2 149/8/2
f 149/8/3 150/7/3 146/9/3 145/10/3
f 147/11/5 151/6/5 149/8/5 145/12/5
f 152/5/6 148/13/6 146/14/6 150/7/6
usemtl Table
f 57/1/4 58/2/4 60/3/4 59/4/4
f 59/4/1 60/3/1 64/5/1 63/6/1
f 63/6/2 64/5/2 62/7/2 61/8/2
f 61/8/3 62/7/3 58/9/3 57/10/3
f 59/11/5 63/6/5 61/8/5 57/12/5
f 64/5/6 60/13/6 58/14/6 62/7/6
usemtl Chair
f 65/1/4 66/2/4 68/3/4 67/4/4
f 67/4/1 68/3/1 72/5/1 71/6/1
f 71/6/2 72/5/2 70/7/2 69/8/2
f 69/8/3 70/7/3 66/9/3 65/10/3
f 67/11/5 71/6/5 69/8/5 65/12/5
f 72/5/6 68/13/6 66/14/6 70/7/6
usemtl Chair.001
f 73/1/1 74/2/1 76/3/1 75/4/1
f 75/4/2 76/3/2 80/5/2 79/6/2
f 79/6/3 80/5/3 78/7/3 77/8/3
f 77/8/4 78/7/4 74/9/4 73/10/4
f 75/11/5 79/6/5 77/8/5 73/12/5
f 80/5/6 76/13/6 74/14/6 78/7/6
usemtl Table.001
f 81/1/4 82/2/4 84/3/4 83/4/4
f 83/4/1 84/3/1 88/5/1 87/6/1
f 87/6/2 88/5/2 86/7/2 85/8/2
f 85/8/3 86/7/3 82/9/3 81/10/3
f 83/11/5 87/6/5 85/8/5 81/12/5
f 88/5/6 84/13/6 82/14/6 86/7/6
usemtl Chair.005
f 89/1/4 90/2/4 92/3/4 91/4/4
f 91/4/1 92/3/1 96/5/1 95/6/1
f 95/6/2 96/5/2 94/7/2 93/8/2
f 93/8/3 94/7/3 90/9/3 89/10/3
f 91/11/5 95/6/5 93/8/5 89/12/5
f 96/5/6 92/13/6 90/14/6 94/7/6
usemtl Table.003
f 97/1/4 98/2/4 100/3/4 99/4/4
f 99/4/1 100/3/1 104/5/1 103/6/1
f 103/6/2 104/5/2 102/7/2 101/8/2
f 101/8/3 102/7/3 98/9/3 97/10/3
f 99/11/5 103/6/5 101/8/5 97/12/5
f 104/5/6 100/13/6 98/14/6 102/7/6
usemtl VIPWall.001
f 105/1/4 106/2/4 108/3/4 107/4/4
f 107/4/1 108/3/1 112/5/1 111/6/1
f 111/6/2 112/5/2 110/7/2 109/8/2
f 109/8/3 110/7/3 106/9/3 105/10/3
f 107/11/5 111/6/5 109/8/5 105/12/5
f 112/5/6 108/13/6 106/14/6 110/7/6
usemtl VIPWall.002
f 113/1/4 114/2/4 116/3/4 115/4/4
f 115/4/1 116/3/1 120/5/1 119/6/1
f 119/6/2 120/5/2 118/7/2 117/8/2
f 117/8/3 118/7/3 114/9/3 113/10/3
f 115/11/5 119/6/5 117/8/5 113/12/5
f 120/5/6 116/13/6 114/14/6 118/7/6
usemtl VIPWall.003
f 121/1/1 122/2/1 124/3/1 123/4/1
f 123/4/2 124/3/2 128/5/2 127/6/2
f 127/6/3 128/5/3 126/7/3 125/8/3
f 125/8/4 126/7/4 122/9/4 121/10/4
f 123/11/5 127/6/5 125/8/5 121/12/5
f 128/5/6 124/13/6 122/14/6 126/7/6
usemtl VIPWall.004
f 129/1/4 130/2/4 132/3/4 131/4/4
f 131/4/1 132/3/1 136/5/1 135/6/1
f 135/6/2 136/5/2 134/7/2 133/8/2
f 133/8/3 134/7/3 130/9/3 129/10/3
f 131/11/5 135/6/5 133/8/5 129/12/5
f 136/5/6 132/13/6 130/14/6 134/7/6
usemtl Chair.010
f 153/1/4 154/2/4 156/3/4 155/4/4
f 155/4/1 156/3/1 160/5/1 159/6/1
f 159/6/2 160/5/2 158/7/2 157/8/2
f 157/8/3 158/7/3 154/9/3 153/10/3
f 155/11/5 159/6/5 157/8/5 153/12/5
f 160/5/6 156/13/6 154/14/6 158/7/6
usemtl Chair.012
f 161/1/4 162/2/4 164/3/4 163/4/4
f 163/4/1 164/3/1 168/5/1 167/6/1
f 167/6/2 168/5/2 166/7/2 165/8/2
f 165/8/3 166/7/3 162/9/3 161/10/3
f 163/11/5 167/6/5 165/8/5 161/12/5
f 168/5/6 164/13/6 162/14/6 166/7/6
usemtl Chair.013
f 169/1/4 170/2/4 172/3/4 171/4/4
f 171/4/1 172/3/1 176/5/1 175/6/1
f 175/6/2 176/5/2 174/7/2 173/8/2
f 173/8/3 174/7/3 170/9/3 169/10/3
f 171/11/5 175/6/5 173/8/5 169/12/5
f 176/5/6 172/13/6 170/14/6 174/7/6
usemtl Chair.014
f 177/1/4 178/2/4 180/3/4 179/4/4
f 179/4/1 180/3/1 184/5/1 183/6/1
f 183/6/2 184/5/2 182/7/2 181/8/2
f 181/8/3 182/7/3 178/9/3 177/10/3
f 179/11/5 183/6/5 181/8/5 177/12/5
f 184/5/6 180/13/6 178/14/6 182/7/6
usemtl Table.005
f 185/1/4 186/2/4 188/3/4 187/4/4
f 187/4/1 188/3/1 192/5/1 191/6/1
f 191/6/2 192/5/2 190/7/2 189/8/2
f 189/8/3 190/7/3 186/9/3 185/10/3
f 187/11/5 191/6/5 189/8/5 185/12/5
f 192/5/6 188/13/6 186/14/6 190/7/6
usemtl Chair.015
f 193/1/1 194/2/1 196/3/1 195/4/1
f 195/4/2 196/3/2 200/5/2 199/6/2
f 199/6/3 200/5/3 198/7/3 197/8/3
f 197/8/4 198/7/4 194/9/4 193/10/4
f 195/11/5 199/6/5 197/8/5 193/12/5
f 200/5/6 196/13/6 194/14/6 198/7/6
usemtl Chair.016
f 201/1/1 202/2/1 204/3/1 203/4/1
f 203/4/2 204/3/2 208/5/2 207/6/2
f 207/6/3 208/5/3 206/7/3 205/8/3
f 205/8/4 206/7/4 202/9/4 201/10/4
f 203/11/5 207/6/5 205/8/5 201/12/5
f 208/5/6 204/13/6 202/14/6 206/7/6
usemtl Table.006
f 209/1/1 210/2/1 212/3/1 211/4/1
f 211/4/2 212/3/2 216/5/2 215/6/2
f 215/6/3 216/5/3 214/7/3 213/8/3
f 213/8/4 214/7/4 210/9/4 209/10/4
f 211/11/5 215/6/5 213/8/5 209/12/5
f 216/5/6 212/13/6 210/14/6 214/7/6
usemtl Chair.018
f 217/1/1 218/2/1 220/3/1 219/4/1
f 219/4/2 220/3/2 224/5/2 223/6/2
f 223/6/3 224/5/3 222/7/3 221/8/3
f 221/8/4 222/7/4 218/9/4 217/10/4
f 219/11/5 223/6/5 221/8/5 217/12/5
f 224/5/6 220/13/6 218/14/6 222/7/6
usemtl Chair.019
f 225/1/1 226/2/1 228/3/1 227/4/1
f 227/4/2 228/3/2 232/5/2 231/6/2
f 231/6/3 232/5/3 230/7/3 229/8/3
f 229/8/4 230/7/4 226/9/4 225/10/4
f 227/11/5 231/6/5 229/8/5 225/12/5
f 232/5/6 228/13/6 226/14/6 230/7/6
usemtl Table.007
f 233/1/4 234/2/4 236/3/4 235/4/4
f 235/4/1 236/3/1 240/5/1 239/6/1
f 239/6/2 240/5/2 238/7/2 237/8/2
f 237/8/3 238/7/3 234/9/3 233/10/3
f 235/11/5 239/6/5 237/8/5 233/12/5
f 240/5/6 236/13/6 234/14/6 238/7/6
